<?xml version="1.0" encoding="utf-8"?>
<!-- Generator: Adobe Illustrator 27.5.0, SVG Export Plug-In . SVG Version: 6.00 Build 0)  -->
<svg version="1.1" id="Vrstva_1" xmlns="http://www.w3.org/2000/svg" xmlns:xlink="http://www.w3.org/1999/xlink" x="0px" y="0px"
	 viewBox="0 0 500 262" style="enable-background:new 0 0 500 262;" xml:space="preserve">
<style type="text/css">
	.st0{fill:#014059;}
	.st1{fill:#37B187;}
	.st2{fill:url(#SVGID_1_);}
</style>
<g>
	<g>
		<g>
			<path class="st0" d="M24.9,201.2h6.8v45.5h24.4v6.1H24.9V201.2z"/>
			<path class="st0" d="M63,239.2v-21.5h6.4V238c0,3.9,0.5,5.9,1.7,7.3c1.4,1.8,3.5,2.4,5.6,2.4c4.3,0,8.5-2.9,11-6v-24h6.4v35.1
				h-6.4v-4.4l-0.1-0.1c-3.1,3.1-7.3,5.3-12.1,5.3c-3.6,0-7.2-1.2-9.6-3.9C63.8,247.3,63,244.2,63,239.2z"/>
			<path class="st0" d="M132.5,251.2c-3,1.6-6.9,2.4-10.5,2.4c-11.1,0-19-7.7-19-18.1c0-10.9,8.6-18.5,19.5-18.5
				c3.6,0,7,0.9,9.5,2.2v6.6c-2.9-1.9-6.3-3-9.8-3c-7.6,0-12.7,5.6-12.7,12.7c0,7.2,5.3,12.3,12.9,12.3c4,0,7.5-1.4,10.1-3.4
				L132.5,251.2L132.5,251.2z"/>
			<path class="st0" d="M145,201.2c2.5,0,4.5,2,4.5,4.5s-2,4.5-4.5,4.5s-4.5-2-4.5-4.5C140.5,203.2,142.5,201.2,145,201.2z
				 M141.8,217.7h6.4v35.1h-6.4V217.7z"/>
			<path class="st0" d="M163.4,237.1c0.9,6.9,6.1,10.7,13,10.7c4.9,0,8.9-1.9,12.1-4.4v6.9c-3.1,2-8,3.3-12.6,3.3
				c-10.9,0-19-7.3-19-18.3s8.1-18.3,17.5-18.3c8.6,0,16,6,16,17c0,1.1-0.1,2.4-0.2,3.2L163.4,237.1L163.4,237.1z M163.6,232.1h20.7
				c-0.6-7-5.7-9.4-9.9-9.4C169.7,222.7,164.7,225.6,163.6,232.1z"/>
		</g>
		<g>
			<path class="st1" d="M217,201.2h13.8c6.3,0,10.3,0.6,13.8,2.7c3.9,2.4,6.1,5.9,6.1,10.6c0,5.9-3.6,9.4-7.9,10.9v0.1
				c6.1,1.4,9.9,5.4,9.9,12.1c0,4.9-2.1,9.2-5.9,11.9c-3.6,2.6-8.6,3.4-16.1,3.4H217V201.2z M234,223.7c5.2,0,9.9-2.4,9.9-8.1
				c0-3.2-1.5-5.3-3.6-6.6c-2.4-1.4-5.2-1.8-10.4-1.8h-6.1v16.4H234z M231.2,246.7c5.9,0,9.1-0.6,11.5-2.2c1.6-1.1,3.4-3.3,3.4-6.8
				c0-5.7-4.5-8.8-12.2-8.8h-10v17.8H231.2z"/>
			<path class="st1" d="M265.3,201.2c2.5,0,4.5,2,4.5,4.5s-2,4.5-4.5,4.5s-4.5-2-4.5-4.5C260.8,203.2,262.8,201.2,265.3,201.2z
				 M262.1,217.7h6.4v35.1h-6.4V217.7z"/>
			<path class="st1" d="M279.8,217.7h6.4v5.1l0.1,0.1c2.4-3.4,6.3-5.5,10.4-5.5c0.7,0,1.5,0.1,2.3,0.3v6.4c-0.9-0.2-1.7-0.3-2.5-0.3
				c-4.8,0-8.1,2.4-10.4,6.2v22.8h-6.4L279.8,217.7L279.8,217.7z"/>
			<path class="st1" d="M305.9,239.2v-21.5h6.4V238c0,3.9,0.5,5.9,1.7,7.3c1.4,1.8,3.5,2.4,5.6,2.4c4.4,0,8.5-2.9,11-6v-24h6.4v35.1
				h-6.4v-4.4l-0.1-0.1c-3.1,3.1-7.3,5.3-12.1,5.3c-3.6,0-7.2-1.2-9.6-3.9C306.7,247.3,305.9,244.2,305.9,239.2z"/>
			<path class="st1" d="M348.2,198.3h6.4v54.5h-6.4V198.3z"/>
			<path class="st1" d="M382.1,216.9c10.6,0,18.5,8,18.5,18.3s-7.9,18.3-18.5,18.3c-10.6,0-18.6-8-18.6-18.3
				C363.5,224.9,371.4,216.9,382.1,216.9z M382.1,247.8c7,0,12.1-5.4,12.1-12.5c0-7.1-5.1-12.5-12.1-12.5s-12.1,5.4-12.1,12.5
				C369.9,242.3,375.1,247.8,382.1,247.8z"/>
			<path class="st1" d="M403.5,217.7h7l6.5,15.8c1.6,3.9,3,7.4,4.5,11.3h0.1c1.6-4,3.1-7.7,4.7-11.7l6.4-15.4h6.7l-14.7,35.1h-6.4
				L403.5,217.7z"/>
			<path class="st1" d="M445.4,251.1c-2.3-1.7-3.7-4.4-3.7-7.8c0-3.9,1.9-6.8,4.6-8.6c2.6-1.7,6.2-2.4,9.9-2.4
				c2.7,0,5.2,0.4,7.5,0.9v-2.9c0-2.6-0.6-4.5-2-5.8c-1.4-1.2-3.5-1.9-6.5-1.9c-4.4,0-8.1,1.6-10.8,3.5v-6.3c2.7-1.6,6.5-3,11.7-3
				c4.3,0,8,0.9,10.5,3.2c2.1,1.9,3.5,4.9,3.5,9.2v14.9c0,2.1,0.8,3.7,2.7,3.7c0.7,0,1.5-0.2,2.1-0.5v5.4c-0.9,0.4-2.1,0.6-3.4,0.6
				c-2.8,0-5.4-1.2-6.8-3.7h-0.1c-2,1.9-6.1,3.9-10.8,3.9C450.9,253.6,447.8,252.9,445.4,251.1z M463.7,244.8v-6.6
				c-1.9-0.6-4.6-0.9-6.9-0.9c-4.4,0-8.6,1.3-8.6,5.4c0,3.4,2.9,5.1,6.7,5.1C458.3,247.9,461.5,246.5,463.7,244.8z M458,212.6h-4.9
				l5.5-11.7h7.2L458,212.6z"/>
		</g>
	</g>
	<g>
		<polygon class="st0" points="168.4,108.4 168.4,5.3 157.8,5.3 157.8,117.5 204.7,117.5 204.7,108.4 		"/>
		<path class="st1" d="M298,121c-4.3-5-10-7.9-17.3-8.9v-0.3c2.9-0.6,5.6-1.7,7.9-3.3c2.4-1.6,4.4-3.5,6.1-5.7s3.1-4.8,4-7.5
			c0.9-2.8,1.4-5.6,1.4-8.6c0-5.2-1-9.6-3-13.1s-4.6-6.3-7.9-8.5c-3.3-2.1-7.1-3.7-11.5-4.6c-4.4-0.9-8.9-1.3-13.6-1.3h-47.4v40.1
			h10.7V68.3h36.8c16.9,0,25.3,7,25.3,21.1c0,2.6-0.5,5.1-1.6,7.4c-1,2.3-2.6,4.3-4.7,6.1c-2.1,1.7-4.7,3.1-7.9,4.1
			c-2,0.6-4.2,1-6.7,1.3v0.2h-4.5h-36.8h-10.7l0,0H207v9.1h24.2v-0.1h25.8v0.1h7.2c9.5,0,16.8,1.8,21.9,5.4c5.1,3.6,7.6,9,7.6,16.3
			c0,4.5-0.8,8.2-2.4,11.2c-1.6,3-3.7,5.4-6.4,7.1s-5.9,3-9.4,3.7c-3.6,0.7-7.3,1-11.3,1h-36.8v-35.7h-10.7v44.8h47.4
			c6.1,0,11.3-0.5,15.6-1.6c4.3-1.1,8-2.5,11-4.2c3-1.7,5.4-3.7,7.1-6c1.8-2.3,3.1-4.6,4.1-7c0.9-2.4,1.6-4.7,1.9-6.9
			c0.3-2.2,0.5-4.3,0.5-6C304.5,132.1,302.3,126,298,121z"/>
	</g>
	
		<linearGradient id="SVGID_1_" gradientUnits="userSpaceOnUse" x1="168.41" y1="147.215" x2="268.75" y2="147.215" gradientTransform="matrix(1 0 0 -1 0 260)">
		<stop  offset="0" style="stop-color:#014059"/>
		<stop  offset="0.9998" style="stop-color:#37B187"/>
	</linearGradient>
	<rect x="168.4" y="108.1" class="st2" width="100.3" height="9.3"/>
</g>
</svg>
