<?xml version="1.0" encoding="utf-8"?>
<!-- Generator: Adobe Illustrator 27.4.1, SVG Export Plug-In . SVG Version: 6.00 Build 0)  -->
<svg version="1.1" id="Vrstva_1" xmlns="http://www.w3.org/2000/svg" xmlns:xlink="http://www.w3.org/1999/xlink" x="0px" y="0px"
	 viewBox="0 0 500 92" style="enable-background:new 0 0 500 92;" xml:space="preserve">
<style type="text/css">
	.st0{fill:#014059;}
	.st1{fill:#37B187;}
	.st2{fill:url(#SVGID_1_);}
</style>
<g>
	<g>
		<path class="st0" d="M115,25h5.4v36.4h19.5v4.9H115V25z"/>
		<path class="st0" d="M145.5,55.4V38.3h5.1v16.2c0,3.1,0.4,4.7,1.4,5.8c1.1,1.4,2.8,1.9,4.4,1.9c3.5,0,6.8-2.3,8.8-4.8V38.3h5.1
			v28.1h-5.1v-3.5l-0.1-0.1c-2.4,2.5-5.8,4.2-9.7,4.2c-2.9,0-5.8-1-7.6-3.1C146.2,61.9,145.5,59.4,145.5,55.4z"/>
		<path class="st0" d="M201.1,65c-2.4,1.3-5.5,1.9-8.4,1.9c-8.9,0-15.2-6.2-15.2-14.5c0-8.7,6.9-14.8,15.6-14.8
			c2.9,0,5.6,0.7,7.6,1.8v5.3c-2.3-1.5-5.1-2.4-7.8-2.4c-6.1,0-10.2,4.5-10.2,10.2c0,5.8,4.3,9.8,10.3,9.8c3.2,0,6-1.1,8.1-2.7
			L201.1,65L201.1,65z"/>
		<path class="st0" d="M211,25c2,0,3.6,1.6,3.6,3.6c0,2-1.6,3.6-3.6,3.6s-3.6-1.6-3.6-3.6C207.4,26.6,209,25,211,25z M208.5,38.3
			h5.1v28.1h-5.1V38.3z"/>
		<path class="st0" d="M225.8,53.8c0.7,5.5,4.9,8.6,10.4,8.6c3.9,0,7.1-1.5,9.7-3.5v5.5c-2.5,1.6-6.4,2.6-10,2.6
			c-8.7,0-15.2-5.8-15.2-14.7c0-8.9,6.4-14.7,14-14.7c6.9,0,12.8,4.8,12.8,13.6c0,0.9-0.1,1.9-0.2,2.6H225.8z M225.9,49.7h16.6
			c-0.5-5.6-4.6-7.5-7.9-7.5C230.8,42.3,226.8,44.5,225.9,49.7z"/>
	</g>
	<g>
		<path class="st1" d="M268.7,25h11.1c5,0,8.2,0.5,11,2.2c3.1,1.9,4.9,4.7,4.9,8.4c0,4.7-2.9,7.5-6.3,8.7v0.1
			c4.9,1.1,7.9,4.3,7.9,9.6c0,3.9-1.7,7.4-4.7,9.5c-2.9,2-6.9,2.7-12.9,2.7h-11L268.7,25L268.7,25z M282.2,43.1
			c4.2,0,7.9-1.9,7.9-6.4c0-2.6-1.2-4.2-2.9-5.2c-1.9-1.1-4.2-1.4-8.3-1.4h-4.9V43L282.2,43.1L282.2,43.1z M280,61.4
			c4.7,0,7.3-0.5,9.2-1.8c1.3-0.9,2.7-2.6,2.7-5.4c0-4.6-3.6-7-9.8-7h-8v14.2H280z"/>
		<path class="st1" d="M307.3,25c2,0,3.6,1.6,3.6,3.6c0,2-1.6,3.6-3.6,3.6c-2,0-3.6-1.6-3.6-3.6C303.7,26.6,305.3,25,307.3,25z
			 M304.7,38.3h5.1v28.1h-5.1V38.3z"/>
		<path class="st1" d="M318.9,38.3h5.1v4.1l0.1,0.1c1.9-2.7,5-4.4,8.3-4.4c0.6,0,1.2,0.1,1.8,0.2v5.1c-0.7-0.2-1.4-0.2-2-0.2
			c-3.8,0-6.5,1.9-8.3,5v18.3h-5.1L318.9,38.3L318.9,38.3z"/>
		<path class="st1" d="M339.7,55.4V38.3h5.1v16.2c0,3.1,0.4,4.7,1.4,5.8c1.1,1.4,2.8,1.9,4.5,1.9c3.5,0,6.8-2.3,8.8-4.8V38.3h5.1
			v28.1h-5.1v-3.5l-0.1-0.1c-2.5,2.5-5.8,4.2-9.7,4.2c-2.9,0-5.8-1-7.6-3.1C340.4,61.9,339.7,59.4,339.7,55.4z"/>
		<path class="st1" d="M373.6,22.7h5.1v43.6h-5.1V22.7z"/>
		<path class="st1" d="M400.6,37.6c8.5,0,14.8,6.4,14.8,14.7c0,8.3-6.3,14.7-14.8,14.7c-8.5,0-14.8-6.4-14.8-14.7
			C385.8,44,392.1,37.6,400.6,37.6z M400.6,62.3c5.6,0,9.7-4.3,9.7-10s-4.1-10-9.7-10c-5.6,0-9.7,4.3-9.7,10
			C391,58,395.1,62.3,400.6,62.3z"/>
		<path class="st1" d="M417.8,38.3h5.6l5.2,12.7c1.2,3.1,2.4,5.9,3.6,9h0.1c1.3-3.2,2.5-6.2,3.8-9.4l5.1-12.3h5.4l-11.8,28.1h-5.1
			L417.8,38.3z"/>
		<path class="st1" d="M451.3,65c-1.8-1.4-3-3.5-3-6.2c0-3.1,1.5-5.4,3.7-6.9c2.1-1.4,5-1.9,7.9-1.9c2.2,0,4.2,0.3,6,0.7v-2.3
			c0-2.1-0.5-3.6-1.6-4.6c-1.1-1-2.8-1.5-5.2-1.5c-3.5,0-6.5,1.2-8.6,2.8v-5c2.2-1.3,5.2-2.4,9.4-2.4c3.4,0,6.4,0.7,8.4,2.6
			c1.6,1.5,2.8,3.9,2.8,7.4v11.9c0,1.7,0.6,3,2.2,3c0.6,0,1.2-0.2,1.6-0.4v4.3c-0.7,0.3-1.6,0.5-2.7,0.5c-2.2,0-4.3-1-5.4-3h-0.1
			c-1.6,1.5-4.9,3.1-8.6,3.1C455.7,67,453.2,66.4,451.3,65z M465.9,60v-5.2c-1.5-0.5-3.7-0.7-5.5-0.7c-3.5,0-6.9,1-6.9,4.3
			c0,2.7,2.3,4.1,5.4,4.1C461.6,62.4,464.2,61.3,465.9,60z M461.4,34.2h-3.9l4.4-9.4h5.8L461.4,34.2z"/>
	</g>
	<g>
		<g>
			<polygon class="st0" points="29.9,53.8 29.9,5.6 24.9,5.6 24.9,58.1 46.9,58.1 46.9,53.8 			"/>
			<path class="st1" d="M90.6,59.8c-2-2.3-4.7-3.7-8.1-4.1v-0.1c1.4-0.3,2.6-0.8,3.7-1.5c1.1-0.7,2.1-1.6,2.9-2.7
				c0.8-1,1.4-2.2,1.9-3.5s0.7-2.6,0.7-4c0-2.4-0.5-4.5-1.4-6.1s-2.2-3-3.7-4s-3.3-1.7-5.4-2.1c-2-0.4-4.2-0.6-6.4-0.6H52.5v18.8h5
				V35.1h17.2c7.9,0,11.8,3.3,11.8,9.9c0,1.2-0.2,2.4-0.7,3.5c-0.5,1.1-1.2,2-2.2,2.8c-1,0.8-2.2,1.5-3.7,1.9
				c-0.9,0.3-2,0.5-3.1,0.6v0.1h-2.1H57.5h-5l0,0H48v4.3h11.3v0h12.1v0h3.4c4.5,0,7.9,0.9,10.3,2.5c2.4,1.7,3.6,4.2,3.6,7.6
				c0,2.1-0.4,3.9-1.1,5.3c-0.7,1.4-1.7,2.5-3,3.4c-1.3,0.8-2.8,1.4-4.4,1.7c-1.7,0.3-3.4,0.5-5.3,0.5H57.5V62.4h-5v21h22.2
				c2.8,0,5.3-0.3,7.3-0.8c2-0.5,3.8-1.2,5.2-2s2.5-1.8,3.3-2.8c0.8-1.1,1.5-2.2,1.9-3.3c0.4-1.1,0.7-2.2,0.9-3.2
				c0.2-1,0.2-2,0.2-2.8C93.6,65,92.6,62.1,90.6,59.8z"/>
		</g>
		
			<linearGradient id="SVGID_1_" gradientUnits="userSpaceOnUse" x1="29.88" y1="34.085" x2="76.85" y2="34.085" gradientTransform="matrix(1 0 0 -1 0 90)">
			<stop  offset="0" style="stop-color:#014059"/>
			<stop  offset="0.9998" style="stop-color:#37B187"/>
		</linearGradient>
		<rect x="29.9" y="53.7" class="st2" width="47" height="4.4"/>
	</g>
</g>
</svg>
