<?xml version="1.0" encoding="utf-8"?>
<!-- Generator: Adobe Illustrator 26.5.0, SVG Export Plug-In . SVG Version: 6.00 Build 0)  -->
<svg version="1.1" id="Vrstva_1" xmlns="http://www.w3.org/2000/svg" xmlns:xlink="http://www.w3.org/1999/xlink" x="0px" y="0px"
	 viewBox="0 0 500 500" style="enable-background:new 0 0 500 500;" xml:space="preserve">
<style type="text/css">
	.st0{fill:#010202;}
</style>
<g>
	<g>
		<g>
			<path class="st0" d="M24.89,322.16h6.78v45.53h24.41v6.14H24.89V322.16z"/>
			<path class="st0" d="M62.99,360.19v-21.48h6.42v20.27c0,3.85,0.5,5.85,1.71,7.28c1.43,1.79,3.5,2.43,5.57,2.43
				c4.35,0,8.49-2.86,10.99-5.99v-23.98h6.42v35.11h-6.42v-4.42l-0.14-0.07c-3.07,3.07-7.28,5.28-12.13,5.28
				c-3.57,0-7.21-1.21-9.56-3.93C63.85,368.33,62.99,365.19,62.99,360.19z"/>
			<path class="st0" d="M132.49,372.18c-3,1.64-6.92,2.43-10.49,2.43c-11.13,0-19.05-7.71-19.05-18.13
				c0-10.85,8.56-18.55,19.48-18.55c3.64,0,6.99,0.93,9.49,2.21v6.64c-2.93-1.85-6.35-3-9.78-3c-7.64,0-12.7,5.64-12.7,12.7
				c0,7.21,5.35,12.27,12.92,12.27c4,0,7.49-1.36,10.13-3.43V372.18z"/>
			<path class="st0" d="M144.97,322.16c2.5,0,4.5,2,4.5,4.5c0,2.5-2,4.5-4.5,4.5c-2.5,0-4.5-2-4.5-4.5
				C140.48,324.16,142.47,322.16,144.97,322.16z M141.76,338.71h6.42v35.11h-6.42V338.71z"/>
			<path class="st0" d="M163.45,358.12c0.93,6.92,6.07,10.7,12.99,10.7c4.85,0,8.92-1.93,12.13-4.35v6.85
				c-3.14,2-7.99,3.28-12.56,3.28c-10.85,0-18.98-7.28-18.98-18.34c0-11.06,8.06-18.34,17.48-18.34c8.56,0,15.99,5.99,15.99,16.98
				c0,1.07-0.07,2.35-0.21,3.21H163.45z M163.59,353.06h20.69c-0.57-6.99-5.71-9.35-9.92-9.35
				C169.73,343.71,164.73,346.56,163.59,353.06z"/>
		</g>
		<g>
			<path class="st0" d="M217.03,322.16h13.84c6.28,0,10.28,0.57,13.77,2.71c3.92,2.36,6.07,5.92,6.07,10.56
				c0,5.92-3.57,9.42-7.85,10.92v0.14c6.07,1.43,9.92,5.42,9.92,12.06c0,4.92-2.14,9.21-5.92,11.85c-3.64,2.57-8.63,3.43-16.13,3.43
				h-13.7V322.16z M234.01,344.71c5.21,0,9.92-2.43,9.92-8.06c0-3.21-1.5-5.28-3.64-6.57c-2.43-1.43-5.21-1.78-10.35-1.78h-6.14
				v16.41H234.01z M231.16,367.69c5.85,0,9.13-0.57,11.49-2.21c1.64-1.14,3.35-3.28,3.35-6.78c0-5.71-4.5-8.78-12.2-8.78h-9.99
				v17.77H231.16z"/>
			<path class="st0" d="M265.33,322.16c2.5,0,4.5,2,4.5,4.5c0,2.5-2,4.5-4.5,4.5c-2.5,0-4.5-2-4.5-4.5
				C260.84,324.16,262.83,322.16,265.33,322.16z M262.12,338.71h6.42v35.11h-6.42V338.71z"/>
			<path class="st0" d="M279.81,338.71h6.42v5.14l0.14,0.07c2.43-3.42,6.28-5.49,10.42-5.49c0.71,0,1.5,0.07,2.28,0.29v6.35
				c-0.86-0.21-1.71-0.29-2.5-0.29c-4.78,0-8.14,2.43-10.35,6.21v22.84h-6.42V338.71z"/>
			<path class="st0" d="M305.86,360.19v-21.48h6.42v20.27c0,3.85,0.5,5.85,1.71,7.28c1.43,1.79,3.5,2.43,5.57,2.43
				c4.35,0,8.49-2.86,10.99-5.99v-23.98h6.42v35.11h-6.42v-4.42l-0.14-0.07c-3.07,3.07-7.28,5.28-12.13,5.28
				c-3.57,0-7.21-1.21-9.56-3.93C306.71,368.33,305.86,365.19,305.86,360.19z"/>
			<path class="st0" d="M348.24,319.3h6.42v54.52h-6.42V319.3z"/>
			<path class="st0" d="M382.06,337.93c10.63,0,18.55,7.99,18.55,18.34c0,10.35-7.92,18.34-18.55,18.34
				c-10.63,0-18.56-7.99-18.56-18.34C363.51,345.92,371.43,337.93,382.06,337.93z M382.06,368.76c6.99,0,12.13-5.42,12.13-12.49
				c0-7.06-5.14-12.49-12.13-12.49c-6.99,0-12.13,5.42-12.13,12.49C369.93,363.33,375.07,368.76,382.06,368.76z"/>
			<path class="st0" d="M403.53,338.71h6.99l6.49,15.84c1.57,3.85,3,7.42,4.5,11.27h0.14c1.57-4,3.07-7.71,4.71-11.7l6.35-15.42
				h6.71l-14.7,35.11h-6.42L403.53,338.71z"/>
			<path class="st0" d="M445.42,372.11c-2.28-1.71-3.71-4.35-3.71-7.78c0-3.93,1.86-6.78,4.64-8.56c2.64-1.71,6.21-2.35,9.85-2.35
				c2.71,0,5.21,0.36,7.49,0.93v-2.93c0-2.57-0.64-4.5-2-5.78c-1.36-1.21-3.5-1.93-6.49-1.93c-4.42,0-8.13,1.57-10.78,3.5v-6.28
				c2.71-1.64,6.49-3,11.7-3c4.28,0,7.99,0.93,10.49,3.21c2.07,1.85,3.5,4.85,3.5,9.21v14.91c0,2.14,0.78,3.71,2.71,3.71
				c0.71,0,1.5-0.21,2.07-0.5v5.35c-0.86,0.36-2.07,0.64-3.43,0.64c-2.78,0-5.42-1.21-6.78-3.71h-0.14c-2,1.86-6.07,3.85-10.78,3.85
				C450.91,374.61,447.77,373.89,445.42,372.11z M463.68,365.83v-6.56c-1.93-0.57-4.64-0.93-6.85-0.93c-4.35,0-8.63,1.28-8.63,5.42
				c0,3.43,2.93,5.14,6.71,5.14C458.26,368.9,461.54,367.54,463.68,365.83z M457.98,333.65h-4.85l5.49-11.7h7.21L457.98,333.65z"/>
		</g>
	</g>
	<g>
		<polygon class="st0" points="168.43,229.35 168.43,126.32 157.75,126.32 157.75,238.46 204.69,238.46 204.69,229.35 		"/>
		<path class="st0" d="M298.03,241.99c-4.29-4.97-10.05-7.93-17.28-8.87v-0.31c2.93-0.63,5.58-1.73,7.93-3.3
			c2.36-1.57,4.4-3.48,6.13-5.73c1.73-2.25,3.06-4.76,4-7.54c0.94-2.77,1.41-5.63,1.41-8.56c0-5.24-1-9.61-2.99-13.12
			c-1.99-3.51-4.63-6.33-7.93-8.48c-3.3-2.14-7.12-3.66-11.47-4.56c-4.35-0.89-8.87-1.33-13.59-1.33h-47.43v40.05h10.68V189.3h36.75
			c16.86,0,25.29,7.02,25.29,21.05c0,2.62-0.52,5.08-1.57,7.38c-1.05,2.31-2.62,4.32-4.71,6.05c-2.1,1.73-4.71,3.09-7.85,4.08
			c-1.98,0.63-4.22,1.03-6.66,1.27v0.23h-4.49h-36.75h-10.68v0h-9.82v9.11h24.25v-0.07h25.83v0.07h7.18
			c9.53,0,16.83,1.81,21.91,5.42c5.08,3.61,7.62,9.03,7.62,16.26c0,4.5-0.79,8.25-2.35,11.23c-1.57,2.98-3.72,5.37-6.44,7.15
			c-2.72,1.78-5.87,3.01-9.42,3.69c-3.56,0.68-7.33,1.02-11.31,1.02h-36.75V247.5h-10.68v44.83h47.43c6.07,0,11.28-0.55,15.63-1.65
			c4.34-1.1,8.01-2.51,10.99-4.24c2.98-1.73,5.36-3.74,7.14-6.05c1.78-2.3,3.14-4.63,4.08-6.99c0.94-2.36,1.57-4.66,1.88-6.91
			c0.32-2.25,0.47-4.27,0.47-6.05C304.47,253.12,302.32,246.97,298.03,241.99z"/>
	</g>
	<rect x="168.41" y="229.12" class="st0" width="100.34" height="9.33"/>
</g>
</svg>
