<?xml version="1.0" encoding="utf-8"?>
<!-- Generator: Adobe Illustrator 26.5.0, SVG Export Plug-In . SVG Version: 6.00 Build 0)  -->
<svg version="1.1" id="Vrstva_1" xmlns="http://www.w3.org/2000/svg" xmlns:xlink="http://www.w3.org/1999/xlink" x="0px" y="0px"
	 viewBox="0 0 500 500" style="enable-background:new 0 0 500 500;" xml:space="preserve">
<style type="text/css">
	.st0{fill:#010202;}
</style>
<g>
	<g>
		<polygon class="st0" points="79.99,304.74 79.99,25.46 51.04,25.46 51.04,329.44 178.29,329.44 178.29,304.74 		"/>
		<path class="st0" d="M431.28,339.01c-11.64-13.48-27.24-21.5-46.83-24.05v-0.85c7.95-1.7,15.11-4.69,21.5-8.94
			c6.39-4.26,11.92-9.43,16.6-15.54c4.68-6.1,8.3-12.91,10.86-20.43c2.55-7.52,3.83-15.26,3.83-23.2c0-14.19-2.7-26.04-8.09-35.55
			c-5.39-9.51-12.55-17.17-21.5-22.99c-8.94-5.81-19.31-9.93-31.08-12.35c-11.78-2.41-24.05-3.62-36.82-3.62H211.18v108.56h28.95
			v-83.87h99.62c45.69,0,68.54,19.02,68.54,57.05c0,7.1-1.42,13.77-4.25,20.01c-2.84,6.25-7.1,11.71-12.77,16.39
			c-5.68,4.68-12.77,8.38-21.29,11.07c-5.37,1.7-11.43,2.8-18.05,3.43v0.61h-12.18h-99.62h-28.95v0h-26.61v24.69h65.72v-0.19h70.01
			v0.19h19.46c25.82,0,45.62,4.9,59.39,14.69c13.76,9.79,20.65,24.48,20.65,44.07c0,12.21-2.13,22.35-6.38,30.44
			c-4.26,8.09-10.08,14.55-17.46,19.37c-7.38,4.83-15.9,8.16-25.54,10c-9.65,1.85-19.87,2.77-30.65,2.77h-99.62v-96.83h-28.95
			v121.52h128.57c16.46,0,30.58-1.49,42.36-4.47c11.77-2.98,21.71-6.81,29.8-11.49c8.09-4.68,14.54-10.14,19.37-16.39
			c4.82-6.24,8.52-12.56,11.07-18.94c2.55-6.39,4.26-12.63,5.11-18.73c0.85-6.1,1.28-11.56,1.28-16.39
			C448.74,369.17,442.92,352.5,431.28,339.01z"/>
	</g>
	<rect x="79.94" y="304.13" class="st0" width="271.99" height="25.29"/>
</g>
</svg>
