<?xml version="1.0" encoding="utf-8"?>
<!-- Generator: Adobe Illustrator 26.5.0, SVG Export Plug-In . SVG Version: 6.00 Build 0)  -->
<svg version="1.1" id="Vrstva_1" xmlns="http://www.w3.org/2000/svg" xmlns:xlink="http://www.w3.org/1999/xlink" x="0px" y="0px"
	 viewBox="0 0 500 500" style="enable-background:new 0 0 500 500;" xml:space="preserve">
<style type="text/css">
	.st0{fill:#010202;}
</style>
<g>
	<g>
		<path class="st0" d="M115,231.02h5.42v36.4h19.52v4.91H115V231.02z"/>
		<path class="st0" d="M145.47,261.44v-17.18h5.14v16.21c0,3.08,0.4,4.68,1.37,5.82c1.14,1.43,2.8,1.94,4.45,1.94
			c3.48,0,6.79-2.28,8.79-4.79v-19.17h5.14v28.08h-5.14v-3.54l-0.11-0.06c-2.45,2.45-5.82,4.22-9.7,4.22
			c-2.85,0-5.76-0.97-7.65-3.14C146.16,267.94,145.47,265.43,145.47,261.44z"/>
		<path class="st0" d="M201.05,271.02c-2.4,1.31-5.53,1.94-8.39,1.94c-8.9,0-15.24-6.16-15.24-14.49c0-8.67,6.85-14.84,15.58-14.84
			c2.91,0,5.59,0.74,7.59,1.77v5.31c-2.34-1.48-5.08-2.4-7.82-2.4c-6.11,0-10.16,4.51-10.16,10.16c0,5.76,4.28,9.81,10.33,9.81
			c3.2,0,5.99-1.08,8.1-2.74V271.02z"/>
		<path class="st0" d="M211.04,231.02c2,0,3.6,1.6,3.6,3.59c0,2-1.6,3.6-3.6,3.6c-2,0-3.6-1.6-3.6-3.6
			C207.44,232.62,209.04,231.02,211.04,231.02z M208.47,244.26h5.14v28.08h-5.14V244.26z"/>
		<path class="st0" d="M225.82,259.78c0.74,5.53,4.85,8.56,10.38,8.56c3.88,0,7.13-1.54,9.7-3.48v5.48
			c-2.51,1.6-6.39,2.62-10.04,2.62c-8.67,0-15.18-5.82-15.18-14.66c0-8.85,6.45-14.67,13.98-14.67c6.85,0,12.78,4.79,12.78,13.58
			c0,0.86-0.06,1.88-0.17,2.57H225.82z M225.93,255.73h16.55c-0.46-5.59-4.56-7.48-7.93-7.48
			C230.84,248.26,226.84,250.54,225.93,255.73z"/>
	</g>
	<g>
		<path class="st0" d="M268.67,231.02h11.07c5.02,0,8.22,0.46,11.01,2.17c3.14,1.88,4.85,4.74,4.85,8.44c0,4.74-2.85,7.53-6.28,8.73
			v0.11c4.85,1.14,7.93,4.34,7.93,9.64c0,3.94-1.71,7.36-4.74,9.47c-2.91,2.05-6.9,2.74-12.9,2.74h-10.96V231.02z M282.25,249.05
			c4.17,0,7.93-1.94,7.93-6.45c0-2.57-1.2-4.22-2.91-5.25c-1.94-1.14-4.17-1.43-8.27-1.43h-4.91v13.12H282.25z M279.97,267.43
			c4.68,0,7.3-0.46,9.19-1.77c1.31-0.91,2.68-2.62,2.68-5.42c0-4.57-3.6-7.02-9.76-7.02h-7.99v14.21H279.97z"/>
		<path class="st0" d="M307.3,231.02c2,0,3.59,1.6,3.59,3.59c0,2-1.6,3.6-3.59,3.6c-2,0-3.6-1.6-3.6-3.6
			C303.7,232.62,305.3,231.02,307.3,231.02z M304.73,244.26h5.13v28.08h-5.13V244.26z"/>
		<path class="st0" d="M318.88,244.26h5.13v4.11l0.12,0.06c1.94-2.74,5.02-4.39,8.33-4.39c0.57,0,1.2,0.06,1.83,0.23v5.08
			c-0.68-0.17-1.37-0.23-2-0.23c-3.82,0-6.5,1.94-8.27,4.96v18.26h-5.13V244.26z"/>
		<path class="st0" d="M339.71,261.44v-17.18h5.14v16.21c0,3.08,0.4,4.68,1.37,5.82c1.14,1.43,2.8,1.94,4.45,1.94
			c3.48,0,6.79-2.28,8.79-4.79v-19.17h5.14v28.08h-5.14v-3.54l-0.11-0.06c-2.45,2.45-5.82,4.22-9.7,4.22
			c-2.85,0-5.76-0.97-7.65-3.14C340.39,267.94,339.71,265.43,339.71,261.44z"/>
		<path class="st0" d="M373.6,228.74h5.13v43.6h-5.13V228.74z"/>
		<path class="st0" d="M400.65,243.63c8.5,0,14.84,6.39,14.84,14.67c0,8.27-6.33,14.66-14.84,14.66c-8.5,0-14.84-6.39-14.84-14.66
			C385.81,250.02,392.15,243.63,400.65,243.63z M400.65,268.28c5.59,0,9.7-4.34,9.7-9.99c0-5.65-4.11-9.99-9.7-9.99
			c-5.59,0-9.7,4.34-9.7,9.99C390.95,263.95,395.06,268.28,400.65,268.28z"/>
		<path class="st0" d="M417.83,244.26h5.59l5.19,12.67c1.25,3.08,2.4,5.94,3.6,9.02h0.11c1.26-3.2,2.45-6.16,3.77-9.36l5.08-12.33
			h5.36l-11.75,28.08h-5.14L417.83,244.26z"/>
		<path class="st0" d="M451.32,270.97c-1.83-1.37-2.97-3.48-2.97-6.22c0-3.14,1.48-5.42,3.71-6.85c2.11-1.37,4.96-1.88,7.87-1.88
			c2.17,0,4.17,0.29,5.99,0.74v-2.34c0-2.05-0.51-3.59-1.6-4.62c-1.08-0.97-2.8-1.54-5.19-1.54c-3.54,0-6.51,1.25-8.62,2.8v-5.02
			c2.17-1.31,5.19-2.4,9.36-2.4c3.42,0,6.39,0.74,8.39,2.57c1.65,1.48,2.8,3.88,2.8,7.36v11.93c0,1.71,0.63,2.97,2.17,2.97
			c0.57,0,1.2-0.17,1.65-0.4v4.28c-0.68,0.29-1.65,0.51-2.74,0.51c-2.23,0-4.34-0.97-5.42-2.97h-0.11c-1.6,1.48-4.85,3.08-8.62,3.08
			C455.72,272.96,453.2,272.39,451.32,270.97z M465.93,265.95v-5.25c-1.54-0.46-3.71-0.74-5.48-0.74c-3.48,0-6.9,1.03-6.9,4.34
			c0,2.74,2.34,4.11,5.36,4.11C461.59,268.4,464.22,267.31,465.93,265.95z M461.37,240.21h-3.88l4.39-9.36h5.76L461.37,240.21z"/>
	</g>
	<g>
		<g>
			<polygon class="st0" points="29.89,259.84 29.89,211.6 24.89,211.6 24.89,264.1 46.86,264.1 46.86,259.84 			"/>
			<path class="st0" d="M90.56,265.76c-2.01-2.33-4.71-3.71-8.09-4.15v-0.15c1.37-0.29,2.61-0.81,3.71-1.54
				c1.1-0.74,2.06-1.63,2.87-2.68c0.81-1.05,1.43-2.23,1.87-3.53c0.44-1.3,0.66-2.63,0.66-4.01c0-2.45-0.47-4.5-1.4-6.14
				c-0.93-1.64-2.17-2.97-3.71-3.97c-1.54-1-3.33-1.72-5.37-2.13c-2.03-0.42-4.15-0.62-6.36-0.62H52.55v18.75h5v-14.48h17.21
				c7.89,0,11.84,3.28,11.84,9.85c0,1.23-0.25,2.38-0.73,3.46c-0.49,1.08-1.23,2.02-2.21,2.83c-0.98,0.81-2.21,1.45-3.68,1.91
				c-0.93,0.29-1.97,0.48-3.12,0.59v0.11h-2.1H57.55h-5v0h-4.6v4.26H59.3v-0.03h12.09v0.03h3.36c4.46,0,7.88,0.85,10.26,2.54
				c2.38,1.69,3.57,4.23,3.57,7.61c0,2.11-0.37,3.86-1.1,5.26c-0.74,1.4-1.74,2.51-3.01,3.35c-1.28,0.83-2.75,1.41-4.41,1.73
				c-1.67,0.32-3.43,0.48-5.29,0.48H57.55v-16.72h-5v20.99h22.21c2.84,0,5.28-0.26,7.32-0.77c2.03-0.51,3.75-1.18,5.15-1.99
				c1.4-0.81,2.51-1.75,3.34-2.83c0.83-1.08,1.47-2.17,1.91-3.27c0.44-1.1,0.74-2.18,0.88-3.24c0.15-1.05,0.22-2,0.22-2.83
				C93.57,270.96,92.57,268.08,90.56,265.76z"/>
		</g>
		<rect x="29.88" y="259.73" class="st0" width="46.97" height="4.37"/>
	</g>
</g>
</svg>
